REM DIRINDEX 1\2,1\4,1\5,1\6,1\7,1\3\8,1\3\9,1\3\10
REM DIRNAME folder01,folder02,folder03,folder04,folder05,folder06,folder07,folder08,folder09,folder10
TITLE ""
FILE "DB4500_5th_6C_44.mp3" MP3
  TRACK 01 AUDIO
    TITLE "0:"
    INDEX 01 00:00:00
  TRACK 02 AUDIO
    TITLE "8:cjc113_5052"
    INDEX 01 00:00:01
  TRACK 03 AUDIO
    TITLE "0:"
    INDEX 01 00:01:03
  TRACK 04 AUDIO
    TITLE "9:cjc113_5053"
    INDEX 01 00:01:21
  TRACK 05 AUDIO
    TITLE "0:"
    INDEX 01 00:02:49
  TRACK 06 AUDIO
    TITLE "10:cjc113_5054"
    INDEX 01 00:02:67
  TRACK 07 AUDIO
    TITLE "0:"
    INDEX 01 00:06:24
  TRACK 08 AUDIO
    TITLE "8:cjc113_5055"
    INDEX 01 00:06:69
  TRACK 09 AUDIO
    TITLE "0:"
    INDEX 01 00:08:03
  TRACK 10 AUDIO
    TITLE "9:cjc113_5056"
    INDEX 01 00:08:17
  TRACK 11 AUDIO
    TITLE "0:"
    INDEX 01 00:09:45
  TRACK 12 AUDIO
    TITLE "10:cjc113_5057"
    INDEX 01 00:09:61
  TRACK 13 AUDIO
    TITLE "0:"
    INDEX 01 00:13:12
  TRACK 14 AUDIO
    TITLE "8:cjc113_5058"
    INDEX 01 00:13:55
  TRACK 15 AUDIO
    TITLE "0:"
    INDEX 01 00:14:66
  TRACK 16 AUDIO
    TITLE "9:cjc113_5059"
    INDEX 01 00:15:09
  TRACK 17 AUDIO
    TITLE "0:"
    INDEX 01 00:16:34
  TRACK 18 AUDIO
    TITLE "10:cjc113_5060"
    INDEX 01 00:16:49
  TRACK 19 AUDIO
    TITLE "0:"
    INDEX 01 00:19:46
  TRACK 20 AUDIO
    TITLE "8:cjc113_5061"
    INDEX 01 00:20:14
  TRACK 21 AUDIO
    TITLE "0:"
    INDEX 01 00:21:29
  TRACK 22 AUDIO
    TITLE "9:cjc113_5062"
    INDEX 01 00:21:45
  TRACK 23 AUDIO
    TITLE "0:"
    INDEX 01 00:22:42
  TRACK 24 AUDIO
    TITLE "10:cjc113_5063"
    INDEX 01 00:22:58
  TRACK 25 AUDIO
    TITLE "0:"
    INDEX 01 00:27:39
  TRACK 26 AUDIO
    TITLE "8:cjc113_5064"
    INDEX 01 00:28:00
  TRACK 27 AUDIO
    TITLE "0:"
    INDEX 01 00:29:23
  TRACK 28 AUDIO
    TITLE "9:cjc113_5065"
    INDEX 01 00:29:36
  TRACK 29 AUDIO
    TITLE "0:"
    INDEX 01 00:30:40
  TRACK 30 AUDIO
    TITLE "10:cjc113_5066"
    INDEX 01 00:30:55
  TRACK 31 AUDIO
    TITLE "0:"
    INDEX 01 00:34:06
  TRACK 32 AUDIO
    TITLE "8:cjc113_5067"
    INDEX 01 00:34:47
  TRACK 33 AUDIO
    TITLE "0:"
    INDEX 01 00:35:59
  TRACK 34 AUDIO
    TITLE "9:cjc113_5068"
    INDEX 01 00:35:74
  TRACK 35 AUDIO
    TITLE "0:"
    INDEX 01 00:37:36
  TRACK 36 AUDIO
    TITLE "10:cjc113_5069"
    INDEX 01 00:37:50
  TRACK 37 AUDIO
    TITLE "0:"
    INDEX 01 00:41:69
  TRACK 38 AUDIO
    TITLE "8:cjc113_5070"
    INDEX 01 00:42:29
  TRACK 39 AUDIO
    TITLE "0:"
    INDEX 01 00:43:29
  TRACK 40 AUDIO
    TITLE "9:cjc113_5071"
    INDEX 01 00:43:44
  TRACK 41 AUDIO
    TITLE "0:"
    INDEX 01 00:44:63
  TRACK 42 AUDIO
    TITLE "10:cjc113_5072"
    INDEX 01 00:45:00
  TRACK 43 AUDIO
    TITLE "0:"
    INDEX 01 00:47:36
  TRACK 44 AUDIO
    TITLE "8:cjc113_5073"
    INDEX 01 00:48:00
  TRACK 45 AUDIO
    TITLE "0:"
    INDEX 01 00:49:21
  TRACK 46 AUDIO
    TITLE "9:cjc113_5074"
    INDEX 01 00:49:37
  TRACK 47 AUDIO
    TITLE "0:"
    INDEX 01 00:50:52
  TRACK 48 AUDIO
    TITLE "10:cjc113_5075"
    INDEX 01 00:50:68
  TRACK 49 AUDIO
    TITLE "0:"
    INDEX 01 00:54:36
  TRACK 50 AUDIO
    TITLE "8:cjc113_5076"
    INDEX 01 00:55:03
  TRACK 51 AUDIO
    TITLE "0:"
    INDEX 01 00:56:08
  TRACK 52 AUDIO
    TITLE "9:cjc113_5077"
    INDEX 01 00:56:24
  TRACK 53 AUDIO
    TITLE "0:"
    INDEX 01 00:57:35
  TRACK 54 AUDIO
    TITLE "10:cjc113_5078"
    INDEX 01 00:57:48
  TRACK 55 AUDIO
    TITLE "0:"
    INDEX 01 01:01:48
  TRACK 56 AUDIO
    TITLE "8:cjc113_5079"
    INDEX 01 01:02:10
  TRACK 57 AUDIO
    TITLE "0:"
    INDEX 01 01:03:22
  TRACK 58 AUDIO
    TITLE "9:cjc113_5080"
    INDEX 01 01:03:39
  TRACK 59 AUDIO
    TITLE "0:"
    INDEX 01 01:04:64
  TRACK 60 AUDIO
    TITLE "10:cjc113_5081"
    INDEX 01 01:05:05
  TRACK 61 AUDIO
    TITLE "0:"
    INDEX 01 01:08:11
  TRACK 62 AUDIO
    TITLE "8:cjc113_5082"
    INDEX 01 01:08:48
  TRACK 63 AUDIO
    TITLE "0:"
    INDEX 01 01:09:57
  TRACK 64 AUDIO
    TITLE "9:cjc113_5083"
    INDEX 01 01:09:73
  TRACK 65 AUDIO
    TITLE "0:"
    INDEX 01 01:11:03
  TRACK 66 AUDIO
    TITLE "10:cjc113_5084"
    INDEX 01 01:11:21
  TRACK 67 AUDIO
    TITLE "0:"
    INDEX 01 01:15:23
  TRACK 68 AUDIO
    TITLE "8:cjc113_5085"
    INDEX 01 01:15:62
  TRACK 69 AUDIO
    TITLE "0:"
    INDEX 01 01:18:37
  TRACK 70 AUDIO
    TITLE "9:cjc113_5086"
    INDEX 01 01:18:54
  TRACK 71 AUDIO
    TITLE "0:"
    INDEX 01 01:19:56
  TRACK 72 AUDIO
    TITLE "10:cjc113_5087"
    INDEX 01 01:19:72
  TRACK 73 AUDIO
    TITLE "0:"
    INDEX 01 01:24:20
  TRACK 74 AUDIO
    TITLE "8:cjc113_5088"
    INDEX 01 01:24:61
  TRACK 75 AUDIO
    TITLE "0:"
    INDEX 01 01:26:03
  TRACK 76 AUDIO
    TITLE "9:cjc113_5089"
    INDEX 01 01:26:17
  TRACK 77 AUDIO
    TITLE "0:"
    INDEX 01 01:27:51
  TRACK 78 AUDIO
    TITLE "10:cjc113_5090"
    INDEX 01 01:27:69
  TRACK 79 AUDIO
    TITLE "0:"
    INDEX 01 01:32:02
  TRACK 80 AUDIO
    TITLE "8:cjc113_5091"
    INDEX 01 01:32:49
  TRACK 81 AUDIO
    TITLE "0:"
    INDEX 01 01:34:01
  TRACK 82 AUDIO
    TITLE "9:cjc113_5092"
    INDEX 01 01:34:14
  TRACK 83 AUDIO
    TITLE "0:"
    INDEX 01 01:35:61
  TRACK 84 AUDIO
    TITLE "10:cjc113_5093"
    INDEX 01 01:36:05
  TRACK 85 AUDIO
    TITLE "0:"
    INDEX 01 01:39:33
